<svg id="visual" viewBox="0 0 900 600" width="900" height="600" xmlns="http://www.w3.org/2000/svg" xmlns:xlink="http://www.w3.org/1999/xlink" version="1.1"><rect x="0" y="0" width="900" height="600" fill="#ae58aa"></rect><path d="M0 202L12.5 206.3C25 210.7 50 219.3 75 223.7C100 228 125 228 150 226.7C175 225.3 200 222.7 225 221.7C250 220.7 275 221.3 300 222.7C325 224 350 226 375 225.5C400 225 425 222 450 221.3C475 220.7 500 222.3 525 217C550 211.7 575 199.3 600 199.5C625 199.7 650 212.3 675 216C700 219.7 725 214.3 750 207.7C775 201 800 193 825 196.8C850 200.7 875 216.3 887.5 224.2L900 232L900 0L887.5 0C875 0 850 0 825 0C800 0 775 0 750 0C725 0 700 0 675 0C650 0 625 0 600 0C575 0 550 0 525 0C500 0 475 0 450 0C425 0 400 0 375 0C350 0 325 0 300 0C275 0 250 0 225 0C200 0 175 0 150 0C125 0 100 0 75 0C50 0 25 0 12.5 0L0 0Z" fill="#b763b2"></path><path d="M0 206L12.5 203.2C25 200.3 50 194.7 75 189C100 183.3 125 177.7 150 176.2C175 174.7 200 177.3 225 179.7C250 182 275 184 300 182.2C325 180.3 350 174.7 375 178.3C400 182 425 195 450 198.8C475 202.7 500 197.3 525 199.2C550 201 575 210 600 211C625 212 650 205 675 202C700 199 725 200 750 203.2C775 206.3 800 211.7 825 214.2C850 216.7 875 216.3 887.5 216.2L900 216L900 0L887.5 0C875 0 850 0 825 0C800 0 775 0 750 0C725 0 700 0 675 0C650 0 625 0 600 0C575 0 550 0 525 0C500 0 475 0 450 0C425 0 400 0 375 0C350 0 325 0 300 0C275 0 250 0 225 0C200 0 175 0 150 0C125 0 100 0 75 0C50 0 25 0 12.5 0L0 0Z" fill="#ad5cad"></path><path d="M0 182L12.5 178.5C25 175 50 168 75 167.8C100 167.7 125 174.3 150 178.8C175 183.3 200 185.7 225 187.3C250 189 275 190 300 183.7C325 177.3 350 163.7 375 156.7C400 149.7 425 149.3 450 157C475 164.7 500 180.3 525 180.7C550 181 575 166 600 166.8C625 167.7 650 184.3 675 185.2C700 186 725 171 750 169.3C775 167.7 800 179.3 825 178.7C850 178 875 165 887.5 158.5L900 152L900 0L887.5 0C875 0 850 0 825 0C800 0 775 0 750 0C725 0 700 0 675 0C650 0 625 0 600 0C575 0 550 0 525 0C500 0 475 0 450 0C425 0 400 0 375 0C350 0 325 0 300 0C275 0 250 0 225 0C200 0 175 0 150 0C125 0 100 0 75 0C50 0 25 0 12.5 0L0 0Z" fill="#a255a9"></path><path d="M0 161L12.5 162.5C25 164 50 167 75 166.5C100 166 125 162 150 158.5C175 155 200 152 225 153.2C250 154.3 275 159.7 300 162.7C325 165.7 350 166.3 375 161.5C400 156.7 425 146.3 450 147.3C475 148.3 500 160.7 525 162.7C550 164.7 575 156.3 600 153.7C625 151 650 154 675 158.5C700 163 725 169 750 168.7C775 168.3 800 161.7 825 161.7C850 161.7 875 168.3 887.5 171.7L900 175L900 0L887.5 0C875 0 850 0 825 0C800 0 775 0 750 0C725 0 700 0 675 0C650 0 625 0 600 0C575 0 550 0 525 0C500 0 475 0 450 0C425 0 400 0 375 0C350 0 325 0 300 0C275 0 250 0 225 0C200 0 175 0 150 0C125 0 100 0 75 0C50 0 25 0 12.5 0L0 0Z" fill="#974fa4"></path><path d="M0 118L12.5 125.2C25 132.3 50 146.7 75 152.5C100 158.3 125 155.7 150 156.3C175 157 200 161 225 154.8C250 148.7 275 132.3 300 131.7C325 131 350 146 375 153.8C400 161.7 425 162.3 450 161.7C475 161 500 159 525 157.2C550 155.3 575 153.7 600 147.5C625 141.3 650 130.7 675 125.3C700 120 725 120 750 122.2C775 124.3 800 128.7 825 133C850 137.3 875 141.7 887.5 143.8L900 146L900 0L887.5 0C875 0 850 0 825 0C800 0 775 0 750 0C725 0 700 0 675 0C650 0 625 0 600 0C575 0 550 0 525 0C500 0 475 0 450 0C425 0 400 0 375 0C350 0 325 0 300 0C275 0 250 0 225 0C200 0 175 0 150 0C125 0 100 0 75 0C50 0 25 0 12.5 0L0 0Z" fill="#8d48a0"></path><path d="M0 102L12.5 101.7C25 101.3 50 100.7 75 105C100 109.3 125 118.7 150 121.2C175 123.7 200 119.3 225 116.2C250 113 275 111 300 111.7C325 112.3 350 115.7 375 121.3C400 127 425 135 450 136.5C475 138 500 133 525 132.5C550 132 575 136 600 135.5C625 135 650 130 675 130.5C700 131 725 137 750 139.2C775 141.3 800 139.7 825 132.5C850 125.3 875 112.7 887.5 106.3L900 100L900 0L887.5 0C875 0 850 0 825 0C800 0 775 0 750 0C725 0 700 0 675 0C650 0 625 0 600 0C575 0 550 0 525 0C500 0 475 0 450 0C425 0 400 0 375 0C350 0 325 0 300 0C275 0 250 0 225 0C200 0 175 0 150 0C125 0 100 0 75 0C50 0 25 0 12.5 0L0 0Z" fill="#82429b"></path><path d="M0 115L12.5 116.2C25 117.3 50 119.7 75 116.7C100 113.7 125 105.3 150 104.5C175 103.7 200 110.3 225 109.5C250 108.7 275 100.3 300 94.8C325 89.3 350 86.7 375 87.7C400 88.7 425 93.3 450 93.2C475 93 500 88 525 89.7C550 91.3 575 99.7 600 100.5C625 101.3 650 94.7 675 90.3C700 86 725 84 750 86.3C775 88.7 800 95.3 825 96.5C850 97.7 875 93.3 887.5 91.2L900 89L900 0L887.5 0C875 0 850 0 825 0C800 0 775 0 750 0C725 0 700 0 675 0C650 0 625 0 600 0C575 0 550 0 525 0C500 0 475 0 450 0C425 0 400 0 375 0C350 0 325 0 300 0C275 0 250 0 225 0C200 0 175 0 150 0C125 0 100 0 75 0C50 0 25 0 12.5 0L0 0Z" fill="#763c97"></path><path d="M0 68L12.5 67.8C25 67.7 50 67.3 75 71.5C100 75.7 125 84.3 150 84.2C175 84 200 75 225 70.8C250 66.7 275 67.3 300 69.3C325 71.3 350 74.7 375 78C400 81.3 425 84.7 450 83C475 81.3 500 74.7 525 74.7C550 74.7 575 81.3 600 85.7C625 90 650 92 675 91.2C700 90.3 725 86.7 750 86.8C775 87 800 91 825 90.3C850 89.7 875 84.3 887.5 81.7L900 79L900 0L887.5 0C875 0 850 0 825 0C800 0 775 0 750 0C725 0 700 0 675 0C650 0 625 0 600 0C575 0 550 0 525 0C500 0 475 0 450 0C425 0 400 0 375 0C350 0 325 0 300 0C275 0 250 0 225 0C200 0 175 0 150 0C125 0 100 0 75 0C50 0 25 0 12.5 0L0 0Z" fill="#6b3692"></path><path d="M0 73L12.5 70.3C25 67.7 50 62.3 75 61C100 59.7 125 62.3 150 62.2C175 62 200 59 225 58.5C250 58 275 60 300 64.8C325 69.7 350 77.3 375 76C400 74.7 425 64.3 450 58.3C475 52.3 500 50.7 525 56C550 61.3 575 73.7 600 78.2C625 82.7 650 79.3 675 75.7C700 72 725 68 750 65.8C775 63.7 800 63.3 825 66.3C850 69.3 875 75.7 887.5 78.8L900 82L900 0L887.5 0C875 0 850 0 825 0C800 0 775 0 750 0C725 0 700 0 675 0C650 0 625 0 600 0C575 0 550 0 525 0C500 0 475 0 450 0C425 0 400 0 375 0C350 0 325 0 300 0C275 0 250 0 225 0C200 0 175 0 150 0C125 0 100 0 75 0C50 0 25 0 12.5 0L0 0Z" fill="#5f318d"></path><path d="M0 52L12.5 49.2C25 46.3 50 40.7 75 41.8C100 43 125 51 150 53C175 55 200 51 225 53C250 55 275 63 300 64.2C325 65.3 350 59.7 375 56.2C400 52.7 425 51.3 450 52.8C475 54.3 500 58.7 525 58.8C550 59 575 55 600 52.8C625 50.7 650 50.3 675 49.2C700 48 725 46 750 43.3C775 40.7 800 37.3 825 38C850 38.7 875 43.3 887.5 45.7L900 48L900 0L887.5 0C875 0 850 0 825 0C800 0 775 0 750 0C725 0 700 0 675 0C650 0 625 0 600 0C575 0 550 0 525 0C500 0 475 0 450 0C425 0 400 0 375 0C350 0 325 0 300 0C275 0 250 0 225 0C200 0 175 0 150 0C125 0 100 0 75 0C50 0 25 0 12.5 0L0 0Z" fill="#532c89"></path><path d="M0 36L12.5 35.7C25 35.3 50 34.7 75 34.2C100 33.7 125 33.3 150 34.5C175 35.7 200 38.3 225 36.8C250 35.3 275 29.7 300 29.3C325 29 350 34 375 38.7C400 43.3 425 47.7 450 46C475 44.3 500 36.7 525 36.2C550 35.7 575 42.3 600 46.2C625 50 650 51 675 51.7C700 52.3 725 52.7 750 49.3C775 46 800 39 825 35.7C850 32.3 875 32.7 887.5 32.8L900 33L900 0L887.5 0C875 0 850 0 825 0C800 0 775 0 750 0C725 0 700 0 675 0C650 0 625 0 600 0C575 0 550 0 525 0C500 0 475 0 450 0C425 0 400 0 375 0C350 0 325 0 300 0C275 0 250 0 225 0C200 0 175 0 150 0C125 0 100 0 75 0C50 0 25 0 12.5 0L0 0Z" fill="#472784"></path><path d="M0 23L12.5 21.8C25 20.7 50 18.3 75 19C100 19.7 125 23.3 150 21.8C175 20.3 200 13.7 225 9.3C250 5 275 3 300 3.2C325 3.3 350 5.7 375 9.7C400 13.7 425 19.3 450 22.3C475 25.3 500 25.7 525 23.5C550 21.3 575 16.7 600 16C625 15.3 650 18.7 675 18.7C700 18.7 725 15.3 750 16.7C775 18 800 24 825 23C850 22 875 14 887.5 10L900 6L900 0L887.5 0C875 0 850 0 825 0C800 0 775 0 750 0C725 0 700 0 675 0C650 0 625 0 600 0C575 0 550 0 525 0C500 0 475 0 450 0C425 0 400 0 375 0C350 0 325 0 300 0C275 0 250 0 225 0C200 0 175 0 150 0C125 0 100 0 75 0C50 0 25 0 12.5 0L0 0Z" fill="#39227f"></path></svg>